<svg width="27" height="27" viewBox="0 0 27 27" fill="none" xmlns="http://www.w3.org/2000/svg">
<path d="M10.0909 12.3636L1 21.4545V26H5.54545L14.6364 16.9091L10.0909 12.3636Z" fill="white"/>
<path d="M21.4545 10.0909L26 5.54545L21.4545 1L16.9091 5.54545C15.7727 4.40909 14.6364 3.27273 12.3636 5.54545L10.0909 7.81818L19.1818 16.9091L21.4545 14.6364C23.7273 12.3636 22.5909 11.2273 21.4545 10.0909Z" fill="white"/>
<path d="M10.0909 7.81818C10.0909 7.81818 10.0909 7.81818 12.3636 5.54545M10.0909 7.81818L12.3636 5.54545M10.0909 7.81818L19.1818 16.9091M19.1818 16.9091C19.1818 16.9091 19.1818 16.9091 21.4545 14.6364M19.1818 16.9091L21.4545 14.6364M12.3636 5.54545C14.6364 3.27273 15.7727 4.40909 16.9091 5.54545L21.4545 1L26 5.54545L21.4545 10.0909C22.5909 11.2273 23.7273 12.3636 21.4545 14.6364M10.0909 12.3636L1 21.4545V26H5.54545L14.6364 16.9091L10.0909 12.3636Z" stroke="black" stroke-width="2" stroke-linejoin="round"/>
</svg>
