<svg xmlns="http://www.w3.org/2000/svg" width="27" height="27" viewBox="0 0 27 27" fill="none">
    <path d="M12.0551 3.20184C14.9909 0.266146 20.8624 0.265961 23.7982 3.20184C26.7339 6.13754 26.734 12.0093 23.7982 14.945C21.2943 17.4487 16.6551 17.8171 13.5229 16.0502C12.9826 15.7453 12.487 15.377 12.0551 14.945C11.6231 14.513 11.2547 14.0174 10.9498 13.477C9.18291 10.3448 9.55128 5.70554 12.0551 3.20184Z" fill="white"/>
    <path d="M10.5872 13.477L1.77982 22.2844C-0.422012 24.4862 2.51374 27.422 4.71559 25.2202L13.5229 16.4128V16.0502C12.9826 15.7453 12.487 15.377 12.0551 14.945C11.6231 14.513 11.2547 14.0174 10.9498 13.477H10.5872Z" fill="white"/>
    <path d="M13.5229 16.4128C13.5229 16.4128 6.91744 23.0183 4.71559 25.2202M13.5229 16.4128V16.0502M13.5229 16.4128L4.71559 25.2202M4.71559 25.2202C2.51374 27.422 -0.422012 24.4862 1.77982 22.2844M10.5872 13.477C10.5872 13.477 3.98165 20.0825 1.77982 22.2844M10.5872 13.477H10.9498M10.5872 13.477L1.77982 22.2844M10.9498 13.477C11.2547 14.0174 11.6231 14.513 12.0551 14.945C12.487 15.377 12.9826 15.7453 13.5229 16.0502M10.9498 13.477C9.18291 10.3448 9.55128 5.70554 12.0551 3.20184C14.9909 0.266146 20.8624 0.265961 23.7982 3.20184C26.7339 6.13754 26.734 12.0093 23.7982 14.945C21.2943 17.4487 16.6551 17.8171 13.5229 16.0502" stroke="black" stroke-width="2"/>
</svg>